<?xml version="1.0" encoding="utf-8" ?>
<svg xmlns="http://www.w3.org/2000/svg" xmlns:xlink="http://www.w3.org/1999/xlink" width="1024" height="1024">
	<path fill="#050504" d="M304.875 796.851L309.931 803.061L276.681 812.733L275.479 810C276.991 808.005 281.023 806.888 283.428 805.846C290.467 802.799 297.605 799.262 304.875 796.851Z"/>
	<path fill="#229C0D" d="M295.343 332.74L310.648 292.665C343.091 214.663 405.356 143.785 484.389 111.13L506.784 102.037C507.788 101.662 510.913 100.116 511.852 100.186C513.492 100.309 516.169 101.628 517.759 102.206L532.996 108.041C554.825 117.123 575.782 127.967 595.191 141.519C646.722 177.501 684.939 229.427 712.039 285.586L731.023 330.286L713.018 343.347C708.802 337.029 706.61 328.642 703.806 321.565L696.599 305.519L686.824 284.641C671.328 254.371 651.42 224.082 628.072 199.305C599.104 168.563 566.128 144.206 526.647 128.675C524.181 127.705 513.345 122.875 511.214 123.184C509.136 123.485 506.237 125.042 504.218 125.839L486.525 132.94C456.332 145.933 430.524 165.703 407.084 188.494C392.16 203.004 377.886 219.103 366.05 236.25C357.61 248.478 349.987 262.21 343.078 275.364C335.923 288.988 329.836 303.06 324.086 317.321C322.113 322.216 321.197 328.379 318.678 332.888C316.554 336.692 312.484 340.405 309.618 343.711L295.343 332.74Z"/>
	<defs>
		<linearGradient id="gradient_0" gradientUnits="userSpaceOnUse" x1="384.74759" y1="635.87097" x2="36.919285" y2="407.90073">
			<stop offset="0" stop-color="#091F08"/>
			<stop offset="1" stop-color="#1F1B1D"/>
		</linearGradient>
	</defs>
	<path fill="url(#gradient_0)" d="M270.54 815.38C265.819 815.612 259.264 819.457 254.829 821.414C236.01 829.72 217.266 838.901 199.507 849.294L163.474 872.396L186.265 767.178L157.564 748.575C137.02 736.202 115.677 726.091 93.6633 716.65C99.145 713.577 105.716 711.319 111.471 708.605C149.637 690.607 189.904 675.106 230.979 665.241C215.13 658.085 199.625 648.998 185.815 638.433C131.569 596.935 98.2583 531.997 89.2412 465.028L93.2992 471.92C109.138 496.161 137.246 513.118 165.278 519.077C153.895 507.587 143.712 495.286 135.513 481.289C110.722 438.969 100.74 390.438 101.446 341.77C101.649 327.769 102.419 312.424 105.981 298.834C108.253 305.422 110.524 311.95 113.563 318.236C128.473 349.076 152.454 373.795 180.677 392.769C172.178 372.676 168.123 350.435 166.421 328.796C165.383 315.589 166.194 302.264 167.69 289.124C173.558 237.567 195.213 190.192 228.844 150.857L225.913 166.102C223.935 178.359 222.994 190.675 224.002 203.062C226.344 231.824 235.293 260.03 251.084 284.277C263.247 302.953 278.432 318.39 295.343 332.74L309.618 343.711L296.636 360.052L296.195 359.827C288.475 355.748 281.525 349.362 275.064 343.553C246.492 317.863 224.646 284.867 213.52 247.961L206.704 215.9C200.753 227.636 197.023 240.362 193.818 253.092C183.836 292.736 181.386 333.991 194.226 373.33C202.502 398.686 214.768 420.842 233.546 439.983C223.326 436.359 212.846 433.1 202.857 428.886C184.995 421.351 167.963 411.152 153.251 398.502C144.679 391.131 136.542 382.816 129.539 373.943L122.418 364.462C121.986 363.89 121.12 362.418 120.493 362.224C120.979 376.044 123.326 389.129 126.48 402.55C136.341 444.515 155.673 481.91 187.328 511.496C202.638 525.805 220.468 538.224 239.028 547.922C219.697 548.665 200.295 547.658 181.203 544.538C167.632 542.321 153.817 539.082 141.24 533.396C133.383 529.844 126.204 525.237 119.268 520.158C121.569 523.924 123.807 528.795 126.657 532.075L128.223 534.563C129.116 539.318 132.579 544.471 134.851 548.829C150.86 579.536 174.835 606.664 203.357 626.246C220.321 637.892 239.396 646.104 259.434 650.761C265.616 652.198 272.683 652.207 278.637 654.109L295.233 681.402C289.815 683.961 284.228 685.519 278.708 687.75L238.065 704.682C226.421 709.527 214.208 714.048 203.342 720.49L270.54 815.38Z"/>
	<path fill="#229C0D" d="M374.41 769.013C391.925 764.167 410.262 761.141 428.245 758.707C455.626 755.002 482.753 753.121 510.368 752.632C537.815 753.289 565.164 754.916 592.367 758.795L621.484 764.054C631.494 765.986 641.667 767.43 651.353 770.699L690.453 784.564L689.683 786.935C685.091 794.457 679.599 801.557 674.236 808.545C633.37 861.799 574.219 901.428 512.242 925.917C498.266 921.03 485.128 914.746 472 907.937C431.442 886.9 393.512 858.067 363.241 823.766C351.511 810.473 341.326 796.122 331.181 781.619L352.793 775.353L374.41 769.013Z"/>
	<path fill="#FEFEFE" d="M352.793 775.353L374.41 769.013C383.85 780.429 392.85 791.977 403.067 802.75C427.876 828.909 458.642 850.021 490.647 866.431L510.199 875.458C510.624 875.503 511.096 875.58 511.532 875.542C513.427 875.378 515.68 874.095 517.411 873.343L529.124 868.208C577.33 847.166 618.396 811.239 651.353 770.699L690.453 784.564L689.683 786.935C682.834 784.797 675.414 781.611 668.4 780.337C647.205 811.85 619.653 839.246 588.505 860.945C567.495 875.583 546.194 887.93 522.743 898.233C520.006 899.436 514.204 902.859 511.42 902.308C508.5 901.73 505.355 900.067 502.672 898.791L488.728 892.09C458.38 877.383 430.008 857.521 405.018 834.948C385.314 817.151 367.396 797.575 352.793 775.353Z"/>
	<path fill="#0EC400" d="M374.41 769.013C391.925 764.167 410.262 761.141 428.245 758.707C455.626 755.002 482.753 753.121 510.368 752.632L510.772 835.413L510.972 861.299C510.996 865.129 511.448 869.505 510.923 873.25C510.802 874.108 510.547 874.673 510.199 875.458L490.647 866.431C458.642 850.021 427.876 828.909 403.067 802.75C392.85 791.977 383.85 780.429 374.41 769.013Z"/>
	<path fill="#72E624" d="M510.368 752.632C537.815 753.289 565.164 754.916 592.367 758.795L621.484 764.054C631.494 765.986 641.667 767.43 651.353 770.699C618.396 811.239 577.33 847.166 529.124 868.208L517.411 873.343C515.68 874.095 513.427 875.378 511.532 875.542C511.096 875.58 510.624 875.503 510.199 875.458C510.547 874.673 510.802 874.108 510.923 873.25C511.448 869.505 510.996 865.129 510.972 861.299L510.772 835.413L510.368 752.632Z"/>
	<defs>
		<linearGradient id="gradient_1" gradientUnits="userSpaceOnUse" x1="632.43835" y1="728.39117" x2="990.28088" y2="326.08957">
			<stop offset="0" stop-color="#071E05"/>
			<stop offset="1" stop-color="#201920"/>
		</linearGradient>
	</defs>
	<path fill="url(#gradient_1)" d="M731.023 330.286C741.983 320.595 752.341 310.426 761.369 298.886C782.331 272.091 796.589 237.389 798.722 203.331C799.957 183.608 797.184 165.677 791.514 146.819C806.345 163.593 819.866 182.16 830.251 202.029C850.855 241.45 861.533 288.501 859.007 332.975C857.898 352.493 852.759 371.822 846.711 390.33C880.389 366.183 903.747 335.142 917.223 296.029C920.093 306.421 921.449 317.302 922.533 328C927.779 379.794 916.87 432.609 891.058 477.853C881.515 494.58 869.642 508.256 856.598 522.295C881.971 512.349 907.164 501.082 925.26 479.826C929.346 475.027 931.943 469.268 935.827 464.478C923.782 533.692 890.906 601.334 832.239 642.573C823.141 648.968 813.625 654.558 803.404 658.963L793.792 662.697C793.053 662.967 791.33 663.382 790.846 663.923C803.85 667.026 816.636 671.329 829.327 675.518C858.235 685.057 886.818 696.023 914.206 709.348C918.894 711.63 925.177 713.822 929.363 716.834L832.008 766.006C847.434 798.301 856.607 836.084 860.242 871.666L829 852.474C813.004 842.992 796.518 834.606 779.394 827.354C765.949 821.661 751.898 816.898 737.781 813.182L725.544 810.341C724.846 810.197 721.928 809.882 721.466 809.512C721.209 809.306 720.579 807.698 720.423 807.375C718.723 803.865 717.112 800.341 715.921 796.619C719.877 797.533 723.882 799.952 727.584 801.649L753.291 813.498L819.025 721.379C792.257 703.909 760.948 692.833 731.141 681.773C731.405 679.287 734.902 674.484 736.18 672.161L749.825 647.062L763.005 615.172C766.591 614.947 770.277 614.021 773.822 613.381C801.172 608.45 826.641 595.262 849.073 579.202C857.4 573.24 865.524 567.13 872.975 560.076C881.806 551.715 888.984 541.908 897.235 533.026L899.809 528.661C902.237 525.874 904.045 522.901 905.759 519.65C892.689 527.96 879.869 533.556 865.293 538.646C845.497 545.559 824.878 550.086 803.843 550.174C796.165 550.207 788.363 549.906 780.811 548.382C779.958 548.21 779.226 547.922 778.438 547.565C784.126 546.288 789.588 543.893 794.837 541.409C809.785 534.336 822.718 524.36 834.95 513.339C861.745 489.198 882.43 458.387 893.909 424.142C901.129 402.604 904.83 379.464 906.023 356.837C900.134 364.459 895.258 372.739 889.102 380.171C870.633 402.469 845.809 419.566 819.25 430.812L795.588 439.763C795.482 439.557 795.221 439.372 795.269 439.146C795.519 437.985 799.914 433.681 800.881 432.52C815.252 415.271 826.21 392.945 832.504 371.51C837.935 353.014 839.989 334.299 839.996 315.066C840.007 280.706 832.92 244.551 816.307 214.242L810.941 240.804C806.905 254.524 801.987 268.587 795.568 281.385C785.376 301.705 771.249 320.12 755.186 336.129C746.345 344.94 736.822 353.384 725.837 359.398L713.018 343.347L731.023 330.286Z"/>
	<path fill="#229C0D" d="M749.825 647.062L763.005 615.172C766.591 614.947 770.277 614.021 773.822 613.381C801.172 608.45 826.641 595.262 849.073 579.202C857.4 573.24 865.524 567.13 872.975 560.076C881.806 551.715 888.984 541.908 897.235 533.026C896.661 538.047 892.304 544.11 889.845 548.575C875.105 575.338 857.514 598.842 833.5 618.005C814.821 632.912 791.335 643.379 767.568 646.401C761.756 647.14 755.686 647.002 749.825 647.062Z"/>
	<path fill="#FEFEFE" d="M309.618 343.711C312.484 340.405 316.554 336.692 318.678 332.888C321.197 328.379 322.113 322.216 324.086 317.321C329.836 303.06 335.923 288.988 343.078 275.364C349.987 262.21 357.61 248.478 366.05 236.25C377.886 219.103 392.16 203.004 407.084 188.494C430.524 165.703 456.332 145.933 486.525 132.94L504.218 125.839C506.237 125.042 509.136 123.485 511.214 123.184C513.345 122.875 524.181 127.705 526.647 128.675C566.128 144.206 599.104 168.563 628.072 199.305C651.42 224.082 671.328 254.371 686.824 284.641L696.599 305.519L703.806 321.565C706.61 328.642 708.802 337.029 713.018 343.347L725.837 359.398C736.822 353.384 746.345 344.94 755.186 336.129C771.249 320.12 785.376 301.705 795.568 281.385C801.987 268.587 806.905 254.524 810.941 240.804L816.307 214.242C832.92 244.551 840.007 280.706 839.996 315.066C839.989 334.299 837.935 353.014 832.504 371.51C826.21 392.945 815.252 415.271 800.881 432.52C799.914 433.681 795.519 437.985 795.269 439.146C795.221 439.372 795.482 439.557 795.588 439.763L819.25 430.812C845.809 419.566 870.633 402.469 889.102 380.171C895.258 372.739 900.134 364.459 906.023 356.837C904.83 379.464 901.129 402.604 893.909 424.142C882.43 458.387 861.745 489.198 834.95 513.339C822.718 524.36 809.785 534.336 794.837 541.409C789.588 543.893 784.126 546.288 778.438 547.565C779.226 547.922 779.958 548.21 780.811 548.382C788.363 549.906 796.165 550.207 803.843 550.174C824.878 550.086 845.497 545.559 865.293 538.646C879.869 533.556 892.689 527.96 905.759 519.65C904.045 522.901 902.237 525.874 899.809 528.661L897.235 533.026C888.984 541.908 881.806 551.715 872.975 560.076C865.524 567.13 857.4 573.24 849.073 579.202C826.641 595.262 801.172 608.45 773.822 613.381C770.277 614.021 766.591 614.947 763.005 615.172L749.825 647.062L736.18 672.161C734.902 674.484 731.405 679.287 731.141 681.773C760.948 692.833 792.257 703.909 819.025 721.379L753.291 813.498L727.584 801.649C723.882 799.952 719.877 797.533 715.921 796.619C715.24 795.593 714.884 794.209 714.451 793.05L690.453 784.564L651.353 770.699C641.667 767.43 631.494 765.986 621.484 764.054L592.367 758.795C565.164 754.916 537.815 753.289 510.368 752.632C482.753 753.121 455.626 755.002 428.245 758.707C410.262 761.141 391.925 764.167 374.41 769.013L352.793 775.353L331.181 781.619L310.393 789.252C307.902 790.165 304.988 791.678 302.455 792.17L304.875 796.851C297.605 799.262 290.467 802.799 283.428 805.846C281.023 806.888 276.991 808.005 275.479 810L276.681 812.733C275.074 813.766 272.875 815.644 270.936 815.632L270.54 815.38L203.342 720.49C214.208 714.048 226.421 709.527 238.065 704.682L278.708 687.75C284.228 685.519 289.815 683.961 295.233 681.402L278.637 654.109C272.683 652.207 265.616 652.198 259.434 650.761C239.396 646.104 220.321 637.892 203.357 626.246C174.835 606.664 150.86 579.536 134.851 548.829C132.579 544.471 129.116 539.318 128.223 534.563L126.657 532.075C123.807 528.795 121.569 523.924 119.268 520.158C126.204 525.237 133.383 529.844 141.24 533.396C153.817 539.082 167.632 542.321 181.203 544.538C200.295 547.658 219.697 548.665 239.028 547.922C220.468 538.224 202.638 525.805 187.328 511.496C155.673 481.91 136.341 444.515 126.48 402.55C123.326 389.129 120.979 376.044 120.493 362.224C121.12 362.418 121.986 363.89 122.418 364.462L129.539 373.943C136.542 382.816 144.679 391.131 153.251 398.502C167.963 411.152 184.995 421.351 202.857 428.886C212.846 433.1 223.326 436.359 233.546 439.983C214.768 420.842 202.502 398.686 194.226 373.33C181.386 333.991 183.836 292.736 193.818 253.092C197.023 240.362 200.753 227.636 206.704 215.9L213.52 247.961C224.646 284.867 246.492 317.863 275.064 343.553C281.525 349.362 288.475 355.748 296.195 359.827L296.636 360.052L309.618 343.711Z"/>
	<path fill="#229C0D" d="M778.438 547.565C779.226 547.922 779.958 548.21 780.811 548.382C788.363 549.906 796.165 550.207 803.843 550.174C824.878 550.086 845.497 545.559 865.293 538.646C879.869 533.556 892.689 527.96 905.759 519.65C904.045 522.901 902.237 525.874 899.809 528.661L899.408 528.901C895.44 531.417 892.814 536.178 889.679 539.626C886.23 543.419 882.452 546.944 878.472 550.174C857.788 566.957 832.491 577.133 806.594 582.53C795.063 584.934 783.072 586.661 771.278 586.504L776.779 548.184L778.438 547.565Z"/>
	<path fill="#229C0D" d="M128.223 534.563L155.399 563.082C176.581 583.525 202.272 599.495 230.243 608.807C240.116 612.094 251.033 615.602 261.499 616.171L278.637 654.109C272.683 652.207 265.616 652.198 259.434 650.761C239.396 646.104 220.321 637.892 203.357 626.246C174.835 606.664 150.86 579.536 134.851 548.829C132.579 544.471 129.116 539.318 128.223 534.563Z"/>
	<path fill="#72E624" d="M795.588 439.763L819.25 430.812C845.809 419.566 870.633 402.469 889.102 380.171C895.258 372.739 900.134 364.459 906.023 356.837C904.83 379.464 901.129 402.604 893.909 424.142C882.43 458.387 861.745 489.198 834.95 513.339C822.718 524.36 809.785 534.336 794.837 541.409C789.588 543.893 784.126 546.288 778.438 547.565L776.779 548.184L777.843 526.706C777.903 525.25 777.627 521.858 778.091 520.632C778.402 519.808 783.396 517.481 784.391 516.945C800.779 508.116 815.15 497.992 828.944 485.514C857.167 459.984 882.568 426.683 894.61 390.279C890.365 393.992 887.032 401.6 883.971 406.428C881.364 410.541 878.494 414.422 875.458 418.226C866.923 428.918 857.95 439.102 847.671 448.174C826.675 466.704 801.833 479.413 776.241 490.298L769.886 455.487C775.04 453.298 779.437 451.538 784.066 448.218C787.857 445.499 791.409 441.801 795.588 439.763Z"/>
	<path fill="#229C0D" d="M508.506 146.036C509.571 148.871 509.002 153.344 509.004 156.417L509.012 177.723L508.956 249.973C453.471 250.21 398.585 268.447 354.344 301.915C376.049 257.84 405.343 215.032 444.258 184.395C464.01 168.844 485.765 156.613 508.506 146.036Z"/>
	<path fill="#229C0D" d="M725.837 359.398C736.822 353.384 746.345 344.94 755.186 336.129C771.249 320.12 785.376 301.705 795.568 281.385C801.987 268.587 806.905 254.524 810.941 240.804L816.307 214.242C832.92 244.551 840.007 280.706 839.996 315.066C839.989 334.299 837.935 353.014 832.504 371.51C826.21 392.945 815.252 415.271 800.881 432.52C799.914 433.681 795.519 437.985 795.269 439.146C795.221 439.372 795.482 439.557 795.588 439.763C791.409 441.801 787.857 445.499 784.066 448.218C779.437 451.538 775.04 453.298 769.886 455.487C768.436 446.413 764.687 437.854 762.015 429.128L774.864 413.176C804.66 372.25 819.566 318.663 820.024 268.37C820.097 260.42 820.826 252.488 819.583 244.6C818.572 248.5 818.569 252.753 818.122 256.765C817.329 263.884 816.297 271.018 814.687 278.004C807.74 308.164 794.75 337.149 776.565 362.242C767.88 374.225 758.005 385.274 748.106 396.255L725.837 359.398Z"/>
	<path fill="#72E624" d="M508.506 146.036C511.863 144.878 513.712 145.62 516.909 147.148C529.977 153.393 542.799 159.763 555.06 167.513C592.712 191.311 624.765 225.468 648.217 263.234C656.194 276.08 662.995 289.497 669.755 303.004C623.021 266.997 567.852 249.883 508.956 249.973L509.012 177.723L509.004 156.417C509.002 153.344 509.571 148.871 508.506 146.036Z"/>
	<path fill="#72E624" d="M126.657 532.075C123.807 528.795 121.569 523.924 119.268 520.158C126.204 525.237 133.383 529.844 141.24 533.396C153.817 539.082 167.632 542.321 181.203 544.538C200.295 547.658 219.697 548.665 239.028 547.922C220.468 538.224 202.638 525.805 187.328 511.496C155.673 481.91 136.341 444.515 126.48 402.55C123.326 389.129 120.979 376.044 120.493 362.224C121.12 362.418 121.986 363.89 122.418 364.462L129.539 373.943C136.542 382.816 144.679 391.131 153.251 398.502C167.963 411.152 184.995 421.351 202.857 428.886C212.846 433.1 223.326 436.359 233.546 439.983C214.768 420.842 202.502 398.686 194.226 373.33C181.386 333.991 183.836 292.736 193.818 253.092C197.023 240.362 200.753 227.636 206.704 215.9L213.52 247.961C224.646 284.867 246.492 317.863 275.064 343.553C281.525 349.362 288.475 355.748 296.195 359.827L296.636 360.052L275.643 393.458C267.76 385.447 259.841 377.512 252.682 368.831C229.717 340.983 212.099 306.366 205.834 270.649L203.503 253.625C203.434 253.159 203.292 251.275 202.97 251.157C201.649 260.854 202.198 271.089 202.836 280.826C205.744 325.221 220.867 367.295 247.908 402.711L262.995 419.448C254.906 442.228 249.326 464.443 246.063 488.391C232.93 483.795 220.48 478.662 208.418 471.669C181.62 456.133 158.798 433.696 141.21 408.313C136.939 402.149 133.331 395.511 129.576 389.026C130.765 396.164 134.762 403.437 138.074 409.834C148.945 430.834 162.244 451.554 178.095 469.158C186.72 478.738 196.406 487.411 206.904 494.888C211.575 498.214 216.444 501.574 221.459 504.355C228.729 508.385 236.544 511.606 244.011 515.277C245.036 540.383 246.929 565.371 253.625 589.706C216.963 586.825 180.734 576.584 151.171 553.871C147.207 550.826 143.224 547.69 139.553 544.296C135.559 540.604 131.372 534.566 126.657 532.075Z"/>
	<path fill="#050504" d="M318.005 678.447C277.059 627.187 256.911 558.103 264.177 492.758C271.704 425.057 305.97 363.572 359.293 321.246C407.68 282.838 474.479 262.923 535.878 269.99C600.045 277.375 662.139 308.983 702.512 360C735.846 402.122 756.62 455.514 759.383 509.211C760.129 523.711 759.258 538.525 757.55 552.928C753.168 589.884 740.707 627.105 720.881 658.675C716.552 665.568 711.563 672.008 706.55 678.406C705.346 677.855 704.004 677.759 702.75 677.356C701.302 676.89 699.758 676.666 698.352 676.14C695.692 675.144 692.729 674.725 690 673.886L673.12 669.468C669.637 668.872 665.988 667.543 662.508 666.705C669.026 658.623 675.793 650.834 681.629 642.218C703.373 610.119 718.199 569.557 719.531 530.703C721.488 473.633 701.998 415.255 662.555 373.38C625.226 333.75 573.493 309.654 518.881 308.087C465.901 306.566 409.465 325.728 370.794 362.519C334.848 396.716 310.361 441.534 304.048 491.051C302.982 499.418 302.874 507.87 302.665 516.291C301.272 572.485 323.578 626.205 362.129 666.76C360.48 666.808 359.323 666.91 357.75 667.419L318.005 678.447Z"/>
	<path fill="#0A2109" d="M438.823 652.874C443.066 652.916 447.326 652.166 451.57 651.925L498.102 648.982C507.955 648.568 517.839 649.162 527.675 649.597L563.349 651.126L573.141 652.076L653.746 665.032C655.676 665.487 660.913 667.359 662.508 666.705C665.988 667.543 669.637 668.872 673.12 669.468L690 673.886C692.729 674.725 695.692 675.144 698.352 676.14C699.758 676.666 701.302 676.89 702.75 677.356C704.004 677.759 705.346 677.855 706.55 678.406L707.091 678.806C708.721 679.955 711.511 680.524 713.428 681.153L726.537 685.618L758.263 697.328C776.669 704.633 794.446 713.386 811.686 723.097C807.009 732.055 800.161 740.413 794.269 748.631L773.064 778.367L751.359 805.933L714.451 793.05L690.453 784.564L651.353 770.699C641.667 767.43 631.494 765.986 621.484 764.054L592.367 758.795C565.164 754.916 537.815 753.289 510.368 752.632C482.753 753.121 455.626 755.002 428.245 758.707C410.262 761.141 391.925 764.167 374.41 769.013L352.793 775.353L331.181 781.619L310.393 789.252C307.902 790.165 304.988 791.678 302.455 792.17L271.587 805.893L231.586 750.247C224.948 741.145 217.179 732.178 211.544 722.458L290.836 689.996L308.915 682.584C311.492 681.542 315.287 680.509 317.463 678.873L318.005 678.447L357.75 667.419C359.323 666.91 360.48 666.808 362.129 666.76C363.674 667.334 369.895 665.312 371.675 664.909L412.371 656.066L438.823 652.874Z"/>
	<path fill="#FEFEFE" d="M508.195 692.247C556.823 691.724 605.153 698.018 652.359 709.483L690.742 720.107L709.354 725.727L753.744 743.665C762.206 747.457 770.898 751.024 779.088 755.373L772.542 765.488L725.024 745.362C671.401 724.772 614.848 710.416 557.495 705.915L512.861 704.521C437.946 704.519 362.315 719.931 292.956 748.11C278.228 754.093 263.981 760.157 249.975 767.739L243.971 757.462C249.819 753.005 257.2 750.144 263.894 747.176L287.05 737.131C330.002 719.885 373.726 706.688 419.52 699.447C448.851 694.809 478.534 692.92 508.195 692.247Z"/>
	<path fill="#FEFEFE" d="M362.129 666.76C323.578 626.205 301.272 572.485 302.665 516.291C302.874 507.87 302.982 499.418 304.048 491.051C310.361 441.534 334.848 396.716 370.794 362.519C409.465 325.728 465.901 306.566 518.881 308.087C573.493 309.654 625.226 333.75 662.555 373.38C701.998 415.255 721.488 473.633 719.531 530.703C718.199 569.557 703.373 610.119 681.629 642.218C675.793 650.834 669.026 658.623 662.508 666.705C660.913 667.359 655.676 665.487 653.746 665.032L573.141 652.076L563.349 651.126L527.675 649.597C517.839 649.162 507.955 648.568 498.102 648.982L451.57 651.925C447.326 652.166 443.066 652.916 438.823 652.874L412.371 656.066L371.675 664.909C369.895 665.312 363.674 667.334 362.129 666.76Z"/>
	<path fill="#229C0D" d="M617.325 346.837C631.489 355.188 644.173 365.896 655.766 377.5C650.636 400.982 643.672 424.582 632.265 445.868C629.075 442.472 629.602 438.939 629.011 434.671C628.269 429.312 627.946 423.6 626.705 418.353C627.048 416.261 626.109 412.717 625.918 410.486L621.685 375.425C620.189 365.889 618.272 356.454 617.325 346.837Z"/>
	<path fill="#767670" d="M580.194 328.145L592.19 333.172L593.447 334.25C592.879 338.83 591.417 343.302 590.261 347.765C588.257 355.507 586.171 363.172 583.541 370.731C560.647 436.55 514.413 495.557 459.749 538.222C430.408 561.122 397.974 578.94 363.503 592.894C352.241 597.453 340.873 601.835 328.934 604.283L322.818 589.443C325.838 587.695 329.517 587.013 332.872 586.192C342.278 584.029 350.956 580.068 359.834 576.372C385.044 565.876 409.652 553.056 432.236 537.667L456.46 519.884L464.447 513.211C488.681 491.197 513.346 467.067 530.427 438.855L536.609 429.123C540.163 423.785 543.036 417.626 546.138 411.999C550.596 403.909 555.582 395.808 559.524 387.467C564.968 375.95 568.807 363.431 572.685 351.324C574.066 347.011 576.449 342.028 576.394 337.468L578.15 336.374L578.316 335.949L578.58 335.237C579.516 332.754 579.975 330.783 580.194 328.145Z"/>
	<path fill="#0EC400" d="M580.194 328.145L592.19 333.172C588.106 336.032 582.78 334.908 578.15 336.374L578.316 335.949L578.58 335.237C579.516 332.754 579.975 330.783 580.194 328.145Z"/>
	<defs>
		<linearGradient id="gradient_2" gradientUnits="userSpaceOnUse" x1="323.99924" y1="432.94028" x2="551.52032" y2="475.81723">
			<stop offset="0" stop-color="#1ACA01"/>
			<stop offset="1" stop-color="#59FF00"/>
		</linearGradient>
	</defs>
	<path fill="url(#gradient_2)" d="M322.818 589.443C319.512 580.829 317.136 571.483 315.2 562.479C307.691 527.554 309.655 493.507 319.75 459.299C334.548 409.157 368.914 365.865 414.942 340.868C439.102 327.748 465.018 320.721 492.25 317.845C506.715 316.317 520.898 315.936 535.364 317.767C550.782 319.719 565.361 323.711 580.194 328.145C579.975 330.783 579.516 332.754 578.58 335.237L578.316 335.949L578.15 336.374L576.394 337.468C570.409 334.634 563.325 333.235 556.893 331.674C520.395 322.812 481.186 324.641 445.769 337.476C438.809 339.998 431.383 343.022 424.892 346.575L391.308 367.091C404.061 366.568 416.706 365.252 429.5 365.947C459.024 367.55 490.92 380.535 512.76 400.524C518.755 406.01 524.354 412.025 529.186 418.559C531.681 421.934 533.924 425.945 536.609 429.123L530.427 438.855C525.551 431.973 520.74 424.945 515.029 418.718C495.818 397.772 468.492 382.958 440.484 378.122C420.286 374.634 399.355 374.824 379.226 378.688C359.292 396.796 344.556 420.717 334.567 445.531C331.299 453.651 328.769 461.965 326.131 470.301C337.127 467.792 348.433 465.975 359.75 466.073C386.723 466.307 413.1 475.056 435.926 489.132C446.494 495.648 456.345 503.791 464.447 513.211L456.46 519.884C429.947 493.13 393.835 476.221 355.854 476.006C344.83 475.944 334.434 477.607 323.761 480.291C322.227 492.093 320.782 503.832 320.519 515.75C319.996 539.505 323.821 564.162 332.872 586.192C329.517 587.013 325.838 587.695 322.818 589.443Z"/>
	<path fill="#FEFEFE" d="M536.609 429.123C533.924 425.945 531.681 421.934 529.186 418.559C524.354 412.025 518.755 406.01 512.76 400.524C490.92 380.535 459.024 367.55 429.5 365.947C416.706 365.252 404.061 366.568 391.308 367.091L424.892 346.575C431.383 343.022 438.809 339.998 445.769 337.476C481.186 324.641 520.395 322.812 556.893 331.674C563.325 333.235 570.409 334.634 576.394 337.468C576.449 342.028 574.066 347.011 572.685 351.324C568.807 363.431 564.968 375.95 559.524 387.467C555.582 395.808 550.596 403.909 546.138 411.999C543.036 417.626 540.163 423.785 536.609 429.123Z"/>
	<path fill="#FEFEFE" d="M332.872 586.192C323.821 564.162 319.996 539.505 320.519 515.75C320.782 503.832 322.227 492.093 323.761 480.291C334.434 477.607 344.83 475.944 355.854 476.006C393.835 476.221 429.947 493.13 456.46 519.884L432.236 537.667C409.652 553.056 385.044 565.876 359.834 576.372C350.956 580.068 342.278 584.029 332.872 586.192Z"/>
	<path fill="#0EC400" d="M573.141 652.076C584.587 644.54 594.457 634.688 603.972 624.886C644.604 583.027 674.387 531.903 690.98 475.976C693.489 467.518 696.294 458.916 697.958 450.25L698.34 447.104C701.461 453.967 703.264 461.724 705.097 469.027C715.232 509.402 713.043 552.697 698.435 591.721C688.328 618.723 673.432 643.903 653.746 665.032L573.141 652.076Z"/>
	<path fill="#0EC400" d="M626.705 418.353C627.946 423.6 628.269 429.312 629.011 434.671C629.602 438.939 629.075 442.472 632.265 445.868C626.024 459.533 618.073 472.005 610.281 484.816C598.481 504.217 585.755 523.505 571.347 541.086C557.787 557.631 542.585 572.267 526.355 586.159C509.575 600.523 491.816 613.891 472.847 625.26C461.532 632.041 449.696 638.104 437.817 643.835L422.41 650.709C418.961 652.231 415.285 653.603 412.371 656.066L371.675 664.909C364.805 657.282 357.739 649.905 351.554 641.689C344.461 632.268 338.517 621.872 332.746 611.61C335.472 609.953 340.416 609.35 343.619 608.584C353.592 611.394 365.427 610.134 375.679 609.342L391.348 608.316C415.561 605.579 439.169 600.07 461.886 591.235C491.248 579.816 518.747 561.247 541.75 539.787C551.376 530.806 560.295 520.778 569.025 510.919C582.027 496.236 594.496 480.823 604.623 463.976C613.448 449.293 619.861 433.98 626.705 418.353Z"/>
	<path fill="#72E624" d="M343.619 608.584L407.529 581.545C419.615 575.311 431.341 567.956 442.635 560.388C493.71 526.158 536.681 479.901 566.711 426.205C573.099 414.783 579.188 403.429 584.346 391.387C591.852 373.867 596.041 355.331 601.898 337.263L617.325 346.837C618.272 356.454 620.189 365.889 621.685 375.425L625.918 410.486C626.109 412.717 627.048 416.261 626.705 418.353C619.861 433.98 613.448 449.293 604.623 463.976C594.496 480.823 582.027 496.236 569.025 510.919C560.295 520.778 551.376 530.806 541.75 539.787C518.747 561.247 491.248 579.816 461.886 591.235C439.169 600.07 415.561 605.579 391.348 608.316L375.679 609.342C365.427 610.134 353.592 611.394 343.619 608.584Z"/>
	<path fill="#FEFEFE" d="M464.447 513.211C456.345 503.791 446.494 495.648 435.926 489.132C413.1 475.056 386.723 466.307 359.75 466.073C348.433 465.975 337.127 467.792 326.131 470.301C328.769 461.965 331.299 453.651 334.567 445.531C344.556 420.717 359.292 396.796 379.226 378.688C399.355 374.824 420.286 374.634 440.484 378.122C468.492 382.958 495.818 397.772 515.029 418.718C520.74 424.945 525.551 431.973 530.427 438.855C513.346 467.067 488.681 491.197 464.447 513.211Z"/>
	<path fill="#0EC400" d="M629.676 468.007L640.155 446.221C645.515 434.926 650.547 423.102 654.506 411.25C657.526 402.208 659.025 393.16 661.32 383.972C665.324 388.179 668.611 392.998 671.964 397.728C680.037 409.118 686.845 420.875 692.671 433.55C689.857 451.203 685.971 468.531 680.364 485.521C661.416 542.939 626.243 594.534 582.019 635.52C576.048 641.053 569.565 645.893 563.349 651.126L527.675 649.597C517.839 649.162 507.955 648.568 498.102 648.982L451.57 651.925C447.326 652.166 443.066 652.916 438.823 652.874C440.447 652.106 441.791 650.868 443.405 650.013L456.569 643.642C461.618 640.216 467.047 637.602 472.279 634.501L502.465 615.049C543.769 585.994 578.299 548.954 605.99 506.849L619.234 485.738C622.576 480.014 625.643 474.023 629.329 468.518L629.676 468.007Z"/>
	<path fill="#72E624" d="M629.676 468.007C630.495 473.325 628.426 480.27 627.513 485.604C621.909 518.367 610.97 550.282 591.112 577.302C582.59 588.899 572.568 599.949 561.25 608.898C537.296 627.838 507.469 638.013 477.569 642.597C470.887 643.622 463.285 644.457 456.569 643.642C461.618 640.216 467.047 637.602 472.279 634.501L502.465 615.049C543.769 585.994 578.299 548.954 605.99 506.849L619.234 485.738C622.576 480.014 625.643 474.023 629.329 468.518L629.676 468.007Z"/>
</svg>
